Normalized EMG Linear Envelopes
nRows=98
nColumns=4

endheader
time	 med_gas_r	  soleus_r	 tib_ant_r	
4.6875	  0.006579	  0.005466	  0.001651	
4.75	  0.007413	  0.006458	  0.002278	
4.8125	  0.007932	  0.006875	  0.002524	
4.875	  0.007981	  0.006723	  0.002399	
4.9375	  0.007712	  0.006478	  0.002173	
5	  0.007503	  0.006569	  0.002026	
5.0625	  0.007572	  0.006988	  0.001929	
5.125	  0.007735	  0.007093	  0.001749	
5.1875	  0.007584	  0.005703	  0.001358	
5.25	  0.006800	  0.001711	  0.000722	
5.3125	  0.005280	 -0.004688	  0.000031	
5.375	  0.003264	 -0.010339	 -0.000077	
5.4375	  0.001982	 -0.007487	  0.001647	
5.5	  0.004857	  0.016767	  0.006863	
5.5625	  0.018085	  0.076888	  0.016642	
5.625	  0.048743	  0.175738	  0.029694	
5.6875	  0.100679	  0.288127	  0.041772	
5.75	  0.170049	  0.366316	  0.048315	
5.8125	  0.242288	  0.374382	  0.047986	
5.875	  0.296503	  0.317672	  0.043160	
5.9375	  0.320668	  0.236982	  0.037636	
6	  0.321942	  0.174397	  0.034090	
6.0625	  0.316145	  0.142621	  0.032771	
6.125	  0.311650	  0.127518	  0.032252	
6.1875	  0.309022	  0.115018	  0.031273	
6.25	  0.308522	  0.103596	  0.029740	
6.3125	  0.311236	  0.095675	  0.028452	
6.375	  0.316838	  0.091654	  0.028097	
6.4375	  0.322988	  0.090929	  0.028301	
6.5	  0.326228	  0.092821	  0.027999	
6.5625	  0.323622	  0.097538	  0.026886	
6.625	  0.313672	  0.105519	  0.025808	
6.6875	  0.297941	  0.115272	  0.025491	
6.75	  0.282413	  0.123893	  0.025692	
6.8125	  0.272455	  0.130660	  0.025799	
6.875	  0.267055	  0.139313	  0.025539	
6.9375	  0.263213	  0.153315	  0.024963	
7	  0.261952	  0.168330	  0.024215	
7.0625	  0.264674	  0.176082	  0.023442	
7.125	  0.268694	  0.175321	  0.022741	
7.1875	  0.270743	  0.170840	  0.022047	
7.25	  0.271337	  0.165368	  0.021104	
7.3125	  0.273382	  0.159987	  0.019798	
7.375	  0.278034	  0.156736	  0.018468	
7.4375	  0.282480	  0.155563	  0.017632	
7.5	  0.282068	  0.154010	  0.017517	
7.5625	  0.275036	  0.151529	  0.017945	
7.625	  0.264320	  0.148666	  0.018491	
7.6875	  0.253865	  0.143096	  0.018706	
7.75	  0.244352	  0.132450	  0.018323	
7.8125	  0.235634	  0.119197	  0.017436	
7.875	  0.231552	  0.108683	  0.016542	
7.9375	  0.235513	  0.104192	  0.016174	
8	  0.242586	  0.104860	  0.016381	
8.0625	  0.243603	  0.107384	  0.016788	
8.125	  0.236222	  0.109833	  0.017150	
8.1875	  0.226577	  0.112445	  0.017510	
8.25	  0.221577	  0.114776	  0.017792	
8.3125	  0.223189	  0.114877	  0.017683	
8.375	  0.227753	  0.111355	  0.016985	
8.4375	  0.227685	  0.104897	  0.015832	
8.5	  0.216767	  0.097956	  0.014558	
8.5625	  0.197201	  0.092578	  0.013452	
8.625	  0.179283	  0.088529	  0.012616	
8.6875	  0.171992	  0.084661	  0.012052	
8.75	  0.175482	  0.081102	  0.011796	
8.8125	  0.182387	  0.079191	  0.011909	
8.875	  0.185389	  0.080741	  0.012337	
8.9375	  0.184121	  0.086780	  0.012855	
9	  0.183590	  0.095780	  0.013207	
9.0625	  0.187444	  0.104950	  0.013305	
9.125	  0.195779	  0.112747	  0.013233	
9.1875	  0.206353	  0.117747	  0.013094	
9.25	  0.215616	  0.117490	  0.012893	
9.3125	  0.221281	  0.111597	  0.012615	
9.375	  0.223763	  0.103959	  0.012327	
9.4375	  0.223911	  0.098862	  0.012120	
9.5	  0.222067	  0.096512	  0.012072	
9.5625	  0.219703	  0.094866	  0.012286	
9.625	  0.218466	  0.093471	  0.012720	
9.6875	  0.218077	  0.093261	  0.013083	
9.75	  0.217225	  0.095197	  0.013107	
9.8125	  0.214062	  0.099862	  0.012754	
9.875	  0.205544	  0.105710	  0.012075	
9.9375	  0.189626	  0.107916	  0.011106	
10	  0.168149	  0.102236	  0.009966	
10.0625	  0.145668	  0.089940	  0.008881	
10.125	  0.124563	  0.076064	  0.007992	
10.1875	  0.102868	  0.064321	  0.007217	
10.25	  0.079352	  0.056003	  0.006402	
10.3125	  0.057409	  0.051570	  0.005491	
10.375	  0.040732	  0.051606	  0.004503	
10.4375	  0.029313	  0.055643	  0.003564	
10.5	  0.021486	  0.060228	  0.003007	
10.5625	  0.016402	  0.061231	  0.003273	
10.625	  0.013732	  0.057800	  0.004694	
10.6875	  0.012744	  0.051209	  0.007284	
10.75	  0.012355	  0.042732	  0.010612	
